<?xml version="1.0" encoding="iso-8859-1"?>
<!-- Generator: Adobe Illustrator 19.0.0, SVG Export Plug-In . SVG Version: 6.00 Build 0)  -->
<svg version="1.1" id="Capa_1" xmlns="http://www.w3.org/2000/svg" xmlns:xlink="http://www.w3.org/1999/xlink" x="0px" y="0px"
	 viewBox="0 0 512.001 512.001" style="enable-background:new 0 0 512.001 512.001;" xml:space="preserve">
<g>
	<g>
		<circle cx="458.083" cy="58.169" r="41.986"/>
	</g>
</g>
<g>
	<g>
		<path d="M363.521,155.273l-32.256-26.855c-2.899-2.414-7.206-2.021-9.62,0.879l-20.036,24.064c-2.414,2.899-2.02,7.207,0.879,9.62
			l15.243,12.691c7.468-15.071,24.943-22.975,41.561-17.908l6.645,2.026C365.753,158.089,364.939,156.454,363.521,155.273z"/>
	</g>
</g>
<g>
	<g>
		<path d="M511.956,144.763c0-15.665-12.698-28.363-28.363-28.363h-50.58c-15.664,0-28.363,12.698-28.363,28.363v26.831
			l18.159,5.537l24.581-30.589l-23.009,48.149l-69.853-21.298c-9.863-3.005-20.298,2.551-23.307,12.415
			c-3.008,9.864,2.551,20.299,12.415,23.307l85.221,25.984c8.865,2.7,18.324-1.503,22.294-9.81l29.937-62.645l-15.195,69.689
			c-3.241,14.865-17.919,24.288-32.784,21.047c-1.586-0.346,0.157,0.143-28.456-8.581v44.719l-21.914,59.746
			c-0.998,2.724-1.481,5.61-1.422,8.511l2.334,115.175c0.259,12.727,10.656,22.868,23.327,22.867c0.159,0,0.322-0.001,0.482-0.004
			c12.888-0.262,23.124-10.921,22.862-23.81l-2.245-110.786l26.017-70.932h11.152l0.074,182.2
			c0.005,12.888,10.454,23.332,23.341,23.332c0.003,0,0.006,0,0.009,0c12.891-0.005,23.337-10.459,23.332-23.35L511.956,144.763z"/>
	</g>
</g>
<g>
	<g>
		<path d="M349.948,104.706c-7.799-7.798-18.168-12.094-29.197-12.094s-21.398,4.296-29.197,12.094
			c-3.046,3.046-3.046,7.984,0,11.03c3.047,3.045,7.984,3.046,11.031,0c4.85-4.852,11.302-7.525,18.165-7.525
			s13.314,2.673,18.167,7.525c3.045,3.046,7.984,3.046,11.031,0C352.993,112.69,352.993,107.752,349.948,104.706z"/>
	</g>
</g>
<g>
	<g>
		<path d="M365.932,84.563c-12.068-12.068-28.115-18.715-45.181-18.715s-33.113,6.646-45.181,18.715
			c-3.046,3.045-3.046,7.984,0,11.029c3.045,3.047,7.982,3.045,11.029,0c9.121-9.122,21.25-14.146,34.151-14.146
			c12.901,0,25.029,5.024,34.151,14.146c3.052,3.052,7.99,3.04,11.031,0C368.978,92.547,368.978,87.608,365.932,84.563z"/>
	</g>
</g>
<g>
	<g>
		<path d="M255.23,186.924h-8.098V162.91c0-8.664-7.023-15.687-15.686-15.687h-48.095v-15.241h36.689
			c2.771,0,4.955-2.359,4.744-5.125c-3.158-41.38-37.718-73.978-79.908-73.978s-76.75,32.598-79.908,73.978
			c-0.212,2.776,1.995,5.125,4.744,5.125h36.689v15.241H58.303c-8.663,0-15.686,7.023-15.686,15.687v24.013h-8.098
			C15.485,186.924,0,202.409,0,221.442v132.76c0,3.425,2.776,6.201,6.201,6.201h18.795c3.425,0,6.201-2.776,6.201-6.201v-132.76
			c0-1.832,1.49-3.321,3.321-3.321h8.098v127.636c0,8.663,7.023,15.686,15.686,15.686h15.956v35.858H51.005
			c-27.161,0-49.258,22.097-49.258,49.258c0,27.161,22.097,49.258,49.258,49.258h187.737c27.161,0,49.258-22.097,49.258-49.258
			c0-27.161-22.097-49.258-49.258-49.258h-23.254v-35.858h15.956c8.663,0,15.686-7.023,15.686-15.686V218.121h8.098
			c1.831,0,3.321,1.49,3.321,3.321v132.76c0,3.425,2.776,6.201,6.201,6.201h18.795c3.425,0,6.201-2.776,6.201-6.201v-132.76h0.002
			C289.749,202.409,274.264,186.924,255.23,186.924z M144.874,80.956c12.24,0,22.266,9.457,23.183,21.463
			c0.061,0.802-0.572,1.486-1.376,1.486h-43.613c-0.8,0-1.437-0.685-1.376-1.486C122.608,90.413,132.634,80.956,144.874,80.956z
			 M55.404,464.62h-4.398c-9.959,0-18.061-8.102-18.061-18.062c0-9.959,8.102-18.061,18.061-18.061h4.398
			c-4.242,4.826-6.822,11.146-6.822,18.061C48.581,453.474,51.162,459.794,55.404,464.62z M75.979,458.358
			c-6.506,0-11.799-5.292-11.799-11.799c0-6.506,5.293-11.798,11.799-11.798s11.799,5.292,11.799,11.798
			S82.485,458.358,75.979,458.358z M124.3,464.62H96.555c4.242-4.826,6.822-11.146,6.822-18.062c0-6.915-2.581-13.235-6.822-18.061
			H124.3c-4.242,4.826-6.822,11.146-6.822,18.061C117.477,453.474,120.058,459.794,124.3,464.62z M116.895,397.301v-35.858h55.958
			v35.858H116.895z M144.875,458.358c-6.506,0-11.799-5.292-11.799-11.799c0-6.506,5.293-11.798,11.799-11.798
			s11.799,5.292,11.799,11.798C156.673,453.065,151.38,458.358,144.875,458.358z M193.194,464.62h-27.745
			c4.242-4.826,6.822-11.146,6.822-18.062c0-6.915-2.581-13.235-6.822-18.061h27.745c-4.242,4.826-6.822,11.146-6.822,18.061
			C186.372,453.474,188.953,459.794,193.194,464.62z M92.551,263.499c-4.7,0-8.51-3.811-8.51-8.51v-51.717
			c0-4.7,3.81-8.51,8.51-8.51h104.647c4.7,0,8.51,3.811,8.51,8.51v51.717c0,4.7-3.81,8.51-8.51,8.51H92.551z M234.344,428.498h4.399
			c9.959,0,18.061,8.102,18.061,18.061c0,9.959-8.102,18.062-18.061,18.062h-4.399c4.242-4.826,6.822-11.146,6.822-18.062
			C241.166,439.644,238.586,433.324,234.344,428.498z M225.568,446.559c0,6.506-5.293,11.799-11.799,11.799
			c-6.506,0-11.799-5.292-11.799-11.799c0-6.506,5.293-11.798,11.799-11.798C220.275,434.76,225.568,440.053,225.568,446.559z"/>
	</g>
</g>
<g>
</g>
<g>
</g>
<g>
</g>
<g>
</g>
<g>
</g>
<g>
</g>
<g>
</g>
<g>
</g>
<g>
</g>
<g>
</g>
<g>
</g>
<g>
</g>
<g>
</g>
<g>
</g>
<g>
</g>
</svg>
