<?xml version="1.0" encoding="iso-8859-1"?>
<!-- Generator: Adobe Illustrator 19.0.0, SVG Export Plug-In . SVG Version: 6.00 Build 0)  -->
<svg version="1.1" id="Capa_1" xmlns="http://www.w3.org/2000/svg" xmlns:xlink="http://www.w3.org/1999/xlink" x="0px" y="0px"
	 viewBox="0 0 511.999 511.999" style="enable-background:new 0 0 511.999 511.999;" xml:space="preserve">
<g>
	<rect x="106.401" y="104.991" style="fill:#6E7B85;" width="76.952" height="51.897"/>
	<path style="fill:#6E7B85;" d="M289.749,344.162c0,8.615-6.984,15.599-15.599,15.599s-15.599-6.984-15.599-15.599V220.799
		c0-1.832-1.489-3.321-3.321-3.321H34.518c-1.832,0-3.321,1.489-3.321,3.321v123.363c0,8.615-6.984,15.599-15.599,15.599
		S0,352.776,0,344.162V220.799c0-19.033,15.485-34.518,34.518-34.518H255.23c19.033,0,34.518,15.485,34.518,34.518v123.363H289.749z
		"/>
	<rect x="74.261" y="347.672" style="fill:#6E7B85;" width="42.636" height="64.582"/>
	<rect x="172.855" y="347.672" style="fill:#6E7B85;" width="42.636" height="64.582"/>
	<path style="fill:#6E7B85;" d="M144.874,473.314c-15.107,0-27.397-12.291-27.397-27.397s12.291-27.397,27.397-27.397
		c15.106,0,27.397,12.291,27.397,27.397S159.981,473.314,144.874,473.314z M144.874,434.117c-6.506,0-11.799,5.293-11.799,11.799
		s5.293,11.799,11.799,11.799c6.506,0,11.799-5.293,11.799-11.799C156.673,439.41,151.38,434.117,144.874,434.117z"/>
	<path style="fill:#6E7B85;" d="M75.979,473.314c-15.107,0-27.397-12.291-27.397-27.397s12.291-27.397,27.397-27.397
		s27.397,12.291,27.397,27.397S91.086,473.314,75.979,473.314z M75.979,434.117c-6.506,0-11.799,5.293-11.799,11.799
		s5.293,11.799,11.799,11.799s11.799-5.293,11.799-11.799C87.778,439.41,82.486,434.117,75.979,434.117z"/>
	<path style="fill:#6E7B85;" d="M213.77,473.314c-15.107,0-27.397-12.291-27.397-27.397s12.291-27.397,27.397-27.397
		c15.107,0,27.398,12.291,27.398,27.397C241.167,461.023,228.877,473.314,213.77,473.314z M213.77,434.117
		c-6.506,0-11.799,5.293-11.799,11.799s5.293,11.799,11.799,11.799c6.506,0,11.799-5.293,11.799-11.799
		C225.569,439.41,220.275,434.117,213.77,434.117z"/>
</g>
<g>
	<path style="fill:#C8D2DC;" d="M232.033,146.581H57.716c-8.339,0-15.099,6.76-15.099,15.099V345.7
		c0,8.339,6.76,15.099,15.099,15.099h174.317c8.339,0,15.099-6.76,15.099-15.099V161.681
		C247.133,153.342,240.372,146.581,232.033,146.581z"/>
	<path style="fill:#C8D2DC;" d="M220.04,131.34c1.325,0,2.591-0.554,3.491-1.525c0.9-0.972,1.353-2.277,1.252-3.598
		c-3.158-41.381-37.718-73.979-79.908-73.979s-76.75,32.598-79.908,73.979c-0.101,1.321,0.354,2.624,1.254,3.595
		c0.9,0.972,2.165,1.529,3.489,1.529L220.04,131.34L220.04,131.34z"/>
</g>
<g>
	<path style="fill:#5F6E9B;" d="M166.681,103.263c0.384,0,0.752-0.16,1.013-0.442c0.261-0.282,0.392-0.661,0.363-1.044
		c-0.916-12.005-10.942-21.462-23.183-21.462c-12.241,0-22.266,9.457-23.183,21.462c-0.029,0.383,0.103,0.761,0.363,1.043
		c0.26,0.282,0.628,0.443,1.012,0.443H166.681z"/>
	<path style="fill:#5F6E9B;" d="M197.516,262.857H92.232c-4.524,0-8.192-3.668-8.192-8.192V202.31c0-4.524,3.667-8.192,8.192-8.192
		h105.284c4.524,0,8.192,3.668,8.192,8.192v52.355C205.708,259.19,202.041,262.857,197.516,262.857z"/>
</g>
<path style="fill:#FF563C;" d="M364.563,164.699L344.2,189.158c-2.323,2.791-6.469,3.169-9.26,0.846l-32.649-27.183
	c-2.791-2.323-3.169-6.469-0.846-9.26l20.363-24.458c2.323-2.791,6.469-3.169,9.26-0.846l32.649,27.183
	C366.508,157.763,366.887,161.909,364.563,164.699z"/>
<path style="fill:#5F6E9B;" d="M488.659,495.819c-12.887,0-23.335-10.444-23.341-23.331L465.228,253.7
	c-0.005-12.891,10.441-23.345,23.331-23.35c0.003,0,0.006,0,0.009,0c12.887,0,23.335,10.444,23.341,23.331l0.089,218.788
	c0.005,12.891-10.441,23.345-23.331,23.35C488.665,495.819,488.662,495.819,488.659,495.819z"/>
<path style="fill:#414B82;" d="M406.976,495.819c-12.672,0.001-23.069-10.141-23.327-22.868l-2.333-115.175
	c-0.059-2.901,0.423-5.787,1.421-8.51l32.497-88.597c4.439-12.104,17.849-18.313,29.951-13.876
	c12.102,4.439,18.314,17.848,13.875,29.951l-30.984,84.477l2.245,110.786c0.262,12.888-9.975,23.547-22.863,23.809
	C407.297,495.818,407.135,495.819,406.976,495.819z"/>
<path style="fill:#AABEEB;" d="M404.65,290.287h107.306V144.765c0-15.665-12.698-28.363-28.363-28.363h-50.58
	c-15.665,0-28.363,12.698-28.363,28.363V290.287z"/>
<circle style="fill:#FFB69E;" cx="458.087" cy="58.166" r="41.986"/>
<path style="fill:#FFB69E;" d="M434.302,235.914c-1.808,0-3.64-0.264-5.447-0.815l-85.22-25.984
	c-9.863-3.008-15.423-13.443-12.415-23.307c3.008-9.864,13.444-15.422,23.307-12.415l69.854,21.298l29.01-60.705
	c4.446-9.305,15.594-13.244,24.899-8.796c9.305,4.446,13.244,15.594,8.796,24.899l-35.936,75.2
	C447.981,231.92,441.336,235.914,434.302,235.914z"/>
<path style="fill:#96A5D7;" d="M470.096,185.641l16.989-35.552c4.447-9.305,0.508-20.452-8.796-24.899
	c-9.304-4.447-20.453-0.508-24.899,8.796l-17.47,36.558L470.096,185.641z"/>
<path style="fill:#91CDFF;" d="M344.431,118.023c-1.997,0-3.992-0.762-5.515-2.284c-4.853-4.853-11.304-7.525-18.166-7.525
	c-6.863,0-13.315,2.673-18.166,7.525c-3.047,3.046-7.984,3.046-11.03,0c-3.046-3.046-3.046-7.984,0-11.03
	c7.799-7.798,18.167-12.094,29.197-12.094c11.03,0,21.398,4.295,29.197,12.094c3.046,3.046,3.046,7.984,0,11.03
	C348.423,117.261,346.427,118.022,344.431,118.023z"/>
<path style="fill:#64AFFF;" d="M360.415,97.878c-1.997,0-3.992-0.762-5.515-2.284c-9.122-9.122-21.25-14.145-34.151-14.145
	s-25.03,5.024-34.151,14.145c-3.047,3.045-7.984,3.046-11.03,0c-3.046-3.046-3.046-7.984,0-11.03
	c12.068-12.069,28.115-18.715,45.182-18.715s33.114,6.646,45.182,18.715c3.046,3.046,3.046,7.984,0,11.03
	C364.408,97.117,362.411,97.878,360.415,97.878z"/>
<path style="fill:#A2ABB8;" d="M238.744,495.174H51.006c-27.161,0-49.258-22.097-49.258-49.258s22.097-49.258,49.258-49.258h187.738
	c27.161,0,49.258,22.097,49.258,49.258S265.903,495.174,238.744,495.174z M51.006,427.855c-9.959,0-18.061,8.103-18.061,18.061
	c0,9.96,8.103,18.061,18.061,18.061h187.738c9.958,0,18.061-8.103,18.061-18.061c0-9.96-8.103-18.061-18.061-18.061H51.006z"/>
<g>
</g>
<g>
</g>
<g>
</g>
<g>
</g>
<g>
</g>
<g>
</g>
<g>
</g>
<g>
</g>
<g>
</g>
<g>
</g>
<g>
</g>
<g>
</g>
<g>
</g>
<g>
</g>
<g>
</g>
</svg>
