<svg id="Layer_1" enable-background="new 0 0 512.093 512.093" height="512" viewBox="0 0 512.093 512.093" width="512" xmlns="http://www.w3.org/2000/svg"><path d="m510.387 488.887c-171.112-342.224-160.251-321.368-162.926-324.08-1.391-1.41-3.123-2.614-4.984-3.424-4.342-1.901 6.76-1.341-150.401-1.341v-48h80c8.836 0 16-7.163 16-16v-80c0-8.837-7.164-16-16-16h-96c-8.836 0-16 7.163-16 16v156.223c-168.693 337.387-160 318.018-160 323.777 0 8.16 6.237 15.184 14.56 15.927 1.338.121-24.919.073 481.44.073 11.87 0 19.628-12.518 14.311-23.155zm-313.768-235.982 110.99 221.979c-60.607-22.692-98.523-117.263-110.99-221.979zm-152.076 221.98 110.99-221.979c-12.467 104.715-50.383 199.286-110.99 221.979zm211.533-394.843h-64v-48h64zm-159.993 400c42.661-37.936 67.036-101.886 79.993-157.477 12.961 55.607 37.34 119.547 79.993 157.477-4.511 0-155.475 0-159.986 0zm249.882 0-144-288h124.223l144 288z"/></svg>