<svg id="Capa_1" enable-background="new 0 0 510 510" height="512" viewBox="0 0 510 510" width="512" xmlns="http://www.w3.org/2000/svg"><path d="m313.74 335.59c-2.17-.52-3.73-2.41-3.83-4.64l-1.43-32.67c-.08-1.82.83-3.55 2.39-4.49 34.58-20.78 61.7-59.6 61.7-107.77v-68.55c0-64.78-52.74-117.47-117.57-117.47s-117.57 52.69-117.57 117.47v68.55c0 48.06 26.34 87.87 61.65 108.69 1.58.93 2.5 2.67 2.42 4.5l-1.4 31.74c-.1 2.22-1.66 4.12-3.83 4.64-128.48 30.84-196.27 51.4-196.27 127.11v37.3c0 5.52 4.48 10 10 10h490c5.52 0 10-4.48 10-10v-37.3c0-74.22-63.43-95.2-196.26-127.11zm-43.74-110.42c-.05 8.25-6.75 14.91-15 14.91s-14.95-6.66-15-14.91v-1.3c0-8.34 6.79-15 15-15 8.22 0 15 6.67 15 15zm1.1-63.73c-.67.22-1.1.74-1.1 1.34v12.25c0 8.28-6.72 15-15 15s-15-6.72-15-15v-12.25c0-13.75 8.89-25.65 21.78-29.86 9.49-3.1 15.63-12.25 14.94-22.25-.74-10.73-9.4-19.38-20.14-20.12-12.83-.88-23.36 9.2-23.36 21.69 0 8.32-6.76 15-15 15-8.28 0-15-6.71-15-15 0-29.24 24.7-53.76 55.42-51.62 25.6 1.76 46.24 22.39 48.01 47.98 1.64 23.74-12.98 45.46-35.55 52.84z"/></svg>